<?xml version="1.0" encoding="utf-8"?>
<!-- Generator: Adobe Illustrator 21.0.0, SVG Export Plug-In . SVG Version: 6.00 Build 0)  -->
<svg version="1.1" id="Capa_1" xmlns="http://www.w3.org/2000/svg" xmlns:xlink="http://www.w3.org/1999/xlink" x="0px" y="0px"
	 viewBox="0 0 533.1 181.2" style="enable-background:new 0 0 533.1 181.2;" xml:space="preserve">
<style type="text/css">
	.st0{fill:#CF0A2C;}
	.st1{fill:#282456;}
	.st2{fill:#FFFFFF;}
</style>
<g>
	<path class="st0" d="M292.9,116.5c8.3,36,61.8,55.5,127.6,40.4c65.8-15.2,105.3-56.2,97-92.2c-8.3-36-61.8-55.5-127.6-40.4
		C324.1,39.5,284.6,80.5,292.9,116.5"/>
	<g>
		<path class="st1" d="M75.8,54.3H52.5v57.9H37.9V54.3H14.5V42.6h61.3V54.3z"/>
	</g>
	<path class="st1" d="M158,105l-1,8.1c-1.8,0.9-3.9,1.4-6.3,1.4c-6.2,0-10-2.4-11.2-7.3c-1.4,2.4-3.6,4.2-6.6,5.5
		c-3,1.2-6.5,1.9-10.6,1.9c-4.7,0-8.5-1.1-11.1-3.2c-2.7-2.1-4-5.2-4-9.3c0-7.9,6.3-13.1,19-15.4l11.7-2.2V82c0-2.6-0.7-4.7-2.2-6.2
		c-1.5-1.5-3.5-2.3-6.1-2.3c-3,0-5.4,0.7-7.3,2c-1.9,1.3-3.2,3.4-3.9,6.3l-10.6-4.5c1-4.2,3.4-7.5,7-9.9c3.6-2.4,8.4-3.6,14.2-3.6
		c7,0,12.4,1.5,16.3,4.5c3.9,3,5.8,7.5,5.8,13.4v20c0,1.3,0.3,2.2,0.9,2.8c0.6,0.6,1.5,0.9,2.7,0.9C156.1,105.4,157.2,105.3,158,105
		z M134.3,103.3c2.4-1.4,3.6-3.3,3.6-5.7v-5.1l-10.4,2.3c-2.2,0.5-3.9,1.2-4.9,2.1s-1.6,2.1-1.6,3.7s0.5,2.7,1.5,3.6
		c1,0.8,2.3,1.2,4.1,1.2C129.3,105.4,131.9,104.7,134.3,103.3z"/>
	<path class="st1" d="M212.3,65.7l-18.5,48.8h-15.4l-18.5-48.8h14.3l12,39.4l12.3-39.4H212.3z"/>
	<path class="st1" d="M264.1,94.2h-34.5c1.4,6.9,5.4,10.3,12.2,10.3c2.8,0,5.1-0.5,6.9-1.6c1.8-1,3.1-2.5,3.8-4.5l10.9,4
		c-1.6,3.9-4.2,6.9-7.8,8.9c-3.7,2-8.3,3.1-13.8,3.1c-8.1,0-14.3-2.2-18.7-6.7c-4.4-4.5-6.6-10.7-6.6-18.7s2.1-14.2,6.4-18.7
		c4.3-4.5,10.3-6.7,18.1-6.7c7.5,0,13.3,2.2,17.4,6.5c4.1,4.4,6.1,10.6,6.1,18.6C264.5,90.8,264.3,92.5,264.1,94.2z M233.1,76.5
		c-1.9,1.9-3.1,4.7-3.7,8.4h22.7c-0.5-3.6-1.8-6.4-3.7-8.3c-2-1.9-4.5-2.9-7.6-2.9C237.6,73.6,235,74.6,233.1,76.5z"/>
	<g>
		<path class="st2" d="M316.1,110.6c-3.4-1.7-5.9-4.2-7.5-7.4l5.7-4c1,2.6,2.7,4.5,5.2,5.8c2.5,1.3,5.4,1.9,8.7,1.9
			c3.5,0,6.1-0.6,7.9-1.9c1.8-1.2,2.7-2.8,2.7-4.7c0-1.7-0.9-3.1-2.6-4.1c-1.7-1-4.7-1.9-9-2.7c-4.2-0.8-7.6-1.7-10-2.8
			c-2.5-1.1-4.3-2.5-5.4-4.1c-1.1-1.7-1.7-3.7-1.7-6.2c0-2.4,0.7-4.6,2.1-6.6c1.4-2,3.4-3.6,6.1-4.8c2.6-1.2,5.7-1.8,9.2-1.8
			c4.7,0,8.5,0.9,11.3,2.6c2.8,1.7,4.9,4.4,6.1,8l-6,3.5c-0.9-2.8-2.4-4.8-4.3-6.1c-1.9-1.2-4.3-1.9-7.2-1.9c-2.9,0-5.3,0.6-7.3,1.9
			c-2,1.3-3,2.8-3,4.5c0,1.9,0.9,3.4,2.6,4.5c1.7,1.1,4.8,2,9.3,2.7c6.1,1,10.4,2.5,13,4.5c2.5,2,3.8,4.8,3.8,8.5
			c0,2.5-0.7,4.8-2.2,6.7c-1.5,2-3.6,3.5-6.4,4.6c-2.8,1.1-6,1.7-9.7,1.7C323.4,113.1,319.5,112.2,316.1,110.6z"/>
		<path class="st2" d="M390.6,71.6c3.2,2.9,4.8,7,4.8,12.4v28.2h-7V86.5c0-4.6-1-7.9-3-10c-2-2.1-4.6-3.1-7.9-3.1
			c-2.3,0-4.5,0.5-6.6,1.6c-2.1,1.1-3.8,2.7-5.1,5.1c-1.3,2.3-2,5.2-2,8.8v23.3h-7V47.9h7v26.9c1.5-2.5,3.5-4.4,5.9-5.6
			c2.5-1.2,5.3-1.9,8.4-1.9C383.2,67.3,387.4,68.7,390.6,71.6z"/>
		<path class="st2" d="M443.4,73.3c3.8,4.1,5.7,9.7,5.7,16.8c0,7.2-1.9,12.8-5.7,16.8c-3.8,4.1-9,6.1-15.6,6.1
			c-6.6,0-11.8-2-15.6-6.1c-3.8-4.1-5.7-9.7-5.7-16.8c0-7.2,1.9-12.8,5.7-16.8c3.8-4.1,9-6.1,15.6-6.1
			C434.4,67.3,439.6,69.3,443.4,73.3z M417.3,77.8c-2.5,3-3.8,7.1-3.8,12.3c0,5.2,1.3,9.3,3.8,12.3c2.5,3,6,4.5,10.5,4.5
			c4.5,0,8-1.5,10.5-4.5c2.5-3,3.8-7.1,3.8-12.3c0-5.2-1.3-9.3-3.8-12.3c-2.5-3-6-4.5-10.5-4.5C423.3,73.3,419.8,74.8,417.3,77.8z"
			/>
		<path class="st2" d="M496.9,73.4c3.6,4.1,5.4,9.7,5.4,16.8c0,7.1-1.8,12.7-5.4,16.8c-3.6,4.1-8.5,6.1-14.7,6.1
			c-3.2,0-6.1-0.7-8.7-2.1s-4.5-3.3-5.9-5.6v25.4h-7V68.1h6.2l0.4,7.7c1.3-2.6,3.3-4.7,5.9-6.2c2.7-1.6,5.7-2.3,9.1-2.3
			C488.4,67.3,493.3,69.3,496.9,73.4z M491.5,102.4c2.5-3,3.7-7.1,3.7-12.2S494,81,491.5,78c-2.5-3-5.8-4.5-10.1-4.5
			c-4.2,0-7.6,1.5-10.1,4.4c-2.5,2.9-3.7,6.9-3.7,11.8v1.1c0,4.9,1.2,8.9,3.7,11.8c2.5,2.9,5.9,4.4,10.1,4.4
			C485.7,106.9,489.1,105.4,491.5,102.4z"/>
	</g>
	<g>
		<path class="st1" d="M282.5,114.5H272V44.7h10.5V114.5z"/>
	</g>
	<g>
		<path class="st1" d="M100.2,67.7l-1.6,11c-1.4-0.9-3.3-1.4-5.8-1.4c-3,0-5.6,1.1-7.8,3.3c-2.2,2.2-3.3,5.2-3.3,9.1v23.8H69.2V67.6
			h10.9l0.8,9c2.5-6.6,7.3-9.9,14.2-9.9C97.3,66.7,99,67,100.2,67.7z"/>
	</g>
</g>
<text transform="matrix(1 0 0 1 922.0999 -61.9632)" style="display:none; font-family:'WorkSans-Black'; font-size:24.8683px;">cf0a2c</text>
</svg>
